<svg xmlns="http://www.w3.org/2000/svg" viewBox="0 0 64 64" role="img" aria-label="Swim Timetable">
  <defs>
    <linearGradient id="bg" x1="0" y1="0" x2="1" y2="1">
      <stop offset="0%" stop-color="#0ea5e9"/>
      <stop offset="100%" stop-color="#2563eb"/>
    </linearGradient>
  </defs>
  <rect width="64" height="64" rx="14" fill="url(#bg)"/>
  <path d="M10 26h44" stroke="#e0f2fe" stroke-width="4" stroke-linecap="round" opacity="0.9"/>
  <path d="M10 38c4 0 4-3 8-3s4 3 8 3 4-3 8-3 4 3 8 3 4-3 8-3 4 3 8 3" fill="none" stroke="#ffffff" stroke-width="4" stroke-linecap="round" stroke-linejoin="round"/>
  <path d="M10 47c4 0 4-3 8-3s4 3 8 3 4-3 8-3 4 3 8 3 4-3 8-3 4 3 8 3" fill="none" stroke="#bae6fd" stroke-width="3" stroke-linecap="round" stroke-linejoin="round"/>
</svg>
